<svg id="svg" xmlns="http://www.w3.org/2000/svg" xmlns:xlink="http://www.w3.org/1999/xlink" width="400" height="391.8367346938776" viewBox="0, 0, 400,391.8367346938776" version="1.1"><g id="svgg"><path id="path0" d="M187.647 22.705 C 183.278 23.824,182.244 25.536,179.638 35.952 C 176.095 50.110,176.074 50.133,164.118 52.766 C 161.529 53.336,156.390 54.668,152.698 55.725 C 141.768 58.854,141.982 58.924,131.922 48.983 C 121.084 38.275,119.761 38.226,104.910 47.992 C 96.673 53.409,96.607 53.812,101.355 69.804 C 104.054 78.895,103.815 80.619,99.266 84.861 C 97.623 86.393,92.906 90.982,88.785 95.058 C 78.299 105.430,79.302 105.133,66.862 101.549 C 51.407 97.096,50.871 97.304,43.151 110.740 C 36.722 121.931,36.796 122.323,47.224 132.298 C 57.445 142.076,57.470 142.152,54.150 152.941 C 53.055 156.500,51.551 162.089,50.809 165.362 C 48.446 175.775,48.494 175.732,35.703 179.015 C 20.402 182.943,20.282 183.083,20.261 197.059 C 20.239 211.760,20.179 211.694,36.963 215.678 C 47.461 218.170,48.389 218.941,50.188 226.667 C 51.706 233.188,53.289 239.039,54.933 244.200 C 57.446 252.089,57.245 252.558,47.272 262.103 C 36.532 272.383,36.514 272.558,44.811 286.564 C 50.798 296.670,51.891 297.031,64.835 293.183 C 78.700 289.062,79.024 289.117,86.238 296.861 C 88.469 299.256,92.835 303.516,95.940 306.327 C 104.448 314.029,104.410 313.853,100.546 327.482 C 96.439 341.969,96.554 342.205,111.732 350.426 C 121.298 355.608,121.437 355.570,132.793 344.596 C 142.595 335.123,142.094 335.274,152.549 338.628 C 155.676 339.631,160.441 340.972,163.137 341.607 C 172.265 343.756,172.819 343.938,174.425 345.313 C 176.378 346.984,177.243 349.015,179.013 356.087 C 181.952 367.825,182.727 369.548,185.726 371.000 C 188.009 372.105,196.043 372.661,202.805 372.181 C 211.928 371.535,212.401 371.014,215.717 357.951 C 217.910 349.316,218.841 347.029,220.903 345.218 C 222.294 343.998,222.518 343.925,232.796 341.386 C 235.844 340.634,240.569 339.309,243.296 338.443 C 253.227 335.290,252.784 335.142,262.779 344.921 C 273.315 355.228,273.647 355.330,282.331 350.913 C 298.754 342.561,298.973 342.142,294.706 327.240 C 290.890 313.913,290.859 314.043,299.749 305.899 C 303.015 302.908,307.425 298.587,309.550 296.296 C 315.763 289.600,317.305 289.317,328.824 292.760 C 343.306 297.089,344.203 296.840,350.300 286.803 C 358.561 273.205,358.474 272.388,347.635 261.762 C 337.968 252.284,337.887 252.044,341.006 242.026 C 341.991 238.863,343.494 233.382,344.346 229.847 C 347.145 218.226,346.819 218.526,360.134 215.297 C 374.733 211.757,374.706 211.791,374.706 197.451 C 374.706 182.759,374.724 182.783,360.971 179.404 C 346.910 175.950,346.879 175.924,344.438 165.161 C 343.672 161.783,342.183 156.219,341.130 152.797 C 337.874 142.212,337.909 142.106,347.950 132.338 C 358.152 122.413,358.279 121.775,352.209 110.980 C 344.584 97.421,344.260 97.286,329.231 101.373 C 315.621 105.073,316.684 105.363,306.570 95.199 C 302.633 91.243,298.043 86.754,296.371 85.223 C 291.214 80.504,291.097 79.032,294.890 66.504 C 298.737 53.800,298.406 52.763,288.627 46.873 C 274.611 38.430,274.046 38.474,263.529 48.831 C 253.584 58.625,253.098 58.812,244.251 56.239 C 241.590 55.465,235.794 53.952,231.373 52.876 C 218.808 49.819,219.125 50.161,215.512 35.775 C 212.180 22.506,212.306 22.602,198.235 22.483 C 193.059 22.439,188.294 22.539,187.647 22.705 M171.499 86.585 C 175.088 88.192,173.570 89.850,166.242 92.328 C 143.917 99.875,134.915 103.488,131.268 106.363 C 126.075 110.457,130.582 111.881,143.575 110.250 C 157.721 108.475,171.955 108.103,174.706 109.437 C 177.776 110.926,175.890 112.538,166.863 116.141 C 148.853 123.331,131.373 133.150,131.373 136.078 C 131.373 138.014,135.584 137.280,153.686 132.187 C 191.009 121.687,224.289 122.552,240.196 134.434 C 260.470 149.579,267.267 167.279,264.862 198.666 C 263.346 218.456,264.624 226.205,271.777 240.588 C 276.319 249.722,277.048 252.108,276.751 256.863 C 275.593 275.386,257.843 294.026,226.375 309.762 C 213.520 316.191,189.137 316.780,167.647 311.182 C 100.940 293.804,62.437 224.236,84.193 160.392 C 91.048 140.276,105.723 118.702,118.269 110.297 C 120.228 108.984,123.359 106.578,125.226 104.950 C 134.104 97.209,149.069 88.726,158.522 86.075 C 161.678 85.190,169.028 85.479,171.499 86.585 M251.486 89.046 C 264.861 95.843,270.103 111.525,258.793 110.907 C 252.031 110.538,241.167 99.439,241.116 92.848 C 241.077 87.848,245.754 86.134,251.486 89.046 M227.163 95.268 C 237.925 98.698,234.119 107.328,221.651 107.769 C 210.376 108.167,203.030 103.848,205.994 98.562 C 208.257 94.527,219.399 92.794,227.163 95.268 M284.834 109.587 C 291.785 114.304,295.835 129.368,291.528 134.486 C 287.280 139.535,280.254 133.844,277.200 122.879 C 274.426 112.922,278.724 105.441,284.834 109.587 M249.608 114.300 C 255.953 115.996,259.509 120.726,257.443 124.722 C 255.058 129.334,240.713 128.783,235.125 123.864 C 227.053 116.759,236.205 110.715,249.608 114.300 M272.111 133.734 C 279.634 137.293,285.985 148.696,283.229 153.695 C 279.679 160.132,268.230 154.139,263.235 143.229 C 259.718 135.547,264.693 130.225,272.111 133.734 M307.765 136.629 C 315.532 140.671,314.226 161.915,305.999 165.353 C 300.519 167.642,296.078 161.845,296.078 152.402 C 296.078 141.476,301.922 133.589,307.765 136.629 M289.288 167.878 C 295.965 171.110,301.086 185.760,297.851 192.372 C 294.268 199.696,286.789 197.639,282.136 188.050 C 276.095 175.598,280.364 163.558,289.288 167.878 M320.824 171.471 C 326.619 175.308,325.258 189.122,318.339 196.693 C 314.013 201.426,309.408 201.119,306.868 195.929 C 301.749 185.465,312.775 166.141,320.824 171.471 M284.755 204.321 C 290.518 205.922,296.500 216.853,296.555 225.882 C 296.616 236.125,289.183 239.942,282.522 233.089 C 272.237 222.506,273.883 201.301,284.755 204.321 M322.452 210.419 C 327.126 213.876,325.858 223.146,319.658 230.842 C 313.849 238.053,307.010 239.073,304.271 233.137 C 299.837 223.530,314.837 204.786,322.452 210.419 " stroke="none" fill="#bd0c47" fill-rule="evenodd"></path></g></svg>
